<svg width="640" height="560" viewBox="0 0 640 560" fill="none" xmlns="http://www.w3.org/2000/svg">
  <defs>
    <linearGradient id="bg" x1="0" y1="0" x2="0" y2="1">
      <stop offset="0" stop-color="#ffffff"/>
      <stop offset="1" stop-color="#f8fafc"/>
    </linearGradient>
    <linearGradient id="shell" x1="0" y1="0" x2="1" y2="1">
      <stop offset="0" stop-color="#fef2f2"/>
      <stop offset="1" stop-color="#fee2e2"/>
    </linearGradient>
    <linearGradient id="door" x1="0" y1="0" x2="0" y2="1">
      <stop offset="0" stop-color="#fecaca"/>
      <stop offset="1" stop-color="#fca5a5"/>
    </linearGradient>
    <filter id="glow" x="-50%" y="-50%" width="200%" height="200%">
      <feGaussianBlur stdDeviation="6" result="blur"/>
      <feMerge>
        <feMergeNode in="blur"/>
        <feMergeNode in="SourceGraphic"/>
      </feMerge>
    </filter>
  </defs>

  <rect width="640" height="560" fill="url(#bg)"/>

  <g transform="translate(95 55)">
    <rect x="0" y="0" width="450" height="440" rx="28" fill="url(#shell)" stroke="#ef4444" stroke-width="4"/>
    <rect x="40" y="40" width="370" height="295" rx="18" fill="url(#door)" stroke="#ef4444" stroke-width="3"/>
    <rect x="64" y="66" width="322" height="210" rx="14" fill="#fff" opacity="0.72"/>

    <g filter="url(#glow)">
      <circle cx="225" cy="170" r="74" fill="#ef4444" fill-opacity="0.16"/>
      <circle cx="225" cy="170" r="64" stroke="#ef4444" stroke-width="4"/>
      <path d="M192 137L258 203" stroke="#dc2626" stroke-width="12" stroke-linecap="round"/>
      <path d="M258 137L192 203" stroke="#dc2626" stroke-width="12" stroke-linecap="round"/>
    </g>

    <rect x="56" y="360" width="338" height="18" rx="9" fill="#991b1b" opacity="0.25"/>
    <rect x="56" y="360" width="225" height="18" rx="9" fill="#ef4444" opacity="0.65"/>

    <g transform="translate(58 392)">
      <rect width="332" height="40" rx="10" fill="#fff1f2" stroke="#ef4444" stroke-width="2"/>
      <text x="16" y="26" fill="#b91c1c" font-family="Arial, sans-serif" font-size="20" font-weight="700">FAULT • CHECK PUMP / SENSOR</text>
    </g>
  </g>
</svg>
